<svg width="36" height="40" viewBox="0 0 36 40" fill="none" xmlns="http://www.w3.org/2000/svg">
<path d="M0 29.7619L17.7089 40L36 29.7619V10.2381L17.7089 0L0 10.2381V29.7619Z" fill="#363636"/>
<path d="M22.9395 12.9025L21.6245 13.9756C21.1654 13.3122 19.5682 12.6911 18.827 12.4634V11H16.7947L16.2208 12.122L16.962 13.3659V15.3903C20.6346 15.1952 21.6006 18.2195 21.6245 19.7561L23.4416 20.1464L24.4459 20.8781L26 20.1464L25.8566 18.4147H24.2785L23.1308 15.3903L24.2785 14.3415L22.9395 12.9025Z" fill="#00B285"/>
<path d="M12.0605 26.0976L13.3755 25.0244C13.8346 25.6879 15.4318 26.309 16.173 26.5366L16.173 28.0001L18.2053 28.0001L18.7792 26.8781L18.038 25.6342L18.038 23.6098C14.3654 23.8049 13.3994 20.7805 13.3755 19.244L11.5584 18.8537L10.5541 18.122L8.99998 18.8537L9.14344 20.5854L10.7215 20.5854L11.8692 23.6098L10.7215 24.6586L12.0605 26.0976Z" fill="#00B285"/>
<path d="M13.0581 14.9515C11.7431 15.7564 10.5715 14.6101 10.2606 14.0979C9.5529 17.1418 12.3408 17.6751 13.8232 17.5613C15.5368 19.3255 18.9734 22.8491 19.0117 22.8296C18.2944 26.9515 21.9526 27.171 22.383 27.171C20.8336 25.7467 21.2274 24.5613 21.6179 24.1467C23.0764 22.3174 24.6784 24.3662 24.6545 24.3174C24.6736 21.4686 22.1917 20.9678 20.9484 21.0735C19.1552 19.2523 15.5639 15.6003 15.5447 15.5613C15.5208 10.3418 12.0539 12.1223 12.03 12.1223C14.3253 13.0735 13.0581 14.9515 13.0581 14.9515Z" fill="#00B285"/>
</svg>
