<svg width="40" height="40" viewBox="0 0 40 40" fill="none" xmlns="http://www.w3.org/2000/svg">
<g clip-path="url(#clip0_7095_16467)">
<path d="M2.9 29.6008C2.7 29.5008 2.5 29.3008 2.5 29.0008V10.4008C2.5 10.1008 2.8 9.80078 3.1 9.80078H3.2H3.3L19.5 16.0008V35.7008L2.9 29.6008Z" fill="#00B285"/>
<path d="M3.1 10.3008L19 16.5008V35.1008L3 29.1008V29.0008V10.4008L3.1 10.3008ZM3.1 9.30078C2.5 9.30078 2 9.80078 2 10.4008V29.0008C2 29.5008 2.3 29.9008 2.7 30.0008L18.7 36.0008L20.1 36.5008V35.1008V16.5008V15.8008L19.5 15.6008L3.5 9.40078L3.3 9.30078H3.1Z" fill="#CFCFCF"/>
<path d="M20.1997 16.1008L36.4997 9.80078H36.5997C36.8997 9.80078 37.1997 10.1008 37.1997 10.4008V29.0008C37.1997 29.3008 36.9997 29.5008 36.7997 29.6008L20.1997 35.8008V16.1008Z" fill="#00B285"/>
<path d="M36.6998 10.3008C36.7998 10.3008 36.7998 10.3008 36.7998 10.4008V29.0008C36.7998 29.0008 36.7998 29.1008 36.6998 29.1008L20.6998 35.1008V16.5008L36.6998 10.3008C36.5998 10.3008 36.5998 10.3008 36.6998 10.3008ZM36.6998 9.30078H36.4998L36.2998 9.40078L20.3998 15.5008L19.7998 15.7008V16.4008V35.0008V36.4008L21.1998 35.9008L37.1998 29.9008C37.5998 29.7008 37.8998 29.3008 37.8998 28.9008V10.4008C37.7998 9.80078 37.2998 9.30078 36.6998 9.30078Z" fill="#CFCFCF"/>
<path d="M3.8999 9.6L19.8999 3.5H19.9999L35.9999 9.6L19.9999 15.8H19.8999L3.8999 9.6Z" fill="#00B285" stroke="#CFCFCF" stroke-miterlimit="10"/>
<path d="M14.0998 14.5008V20.5008L8.2998 18.2008V12.3008L14.0998 14.5008Z" fill="#CFCFCF" stroke="#CFCFCF" stroke-miterlimit="10"/>
<path d="M14.9002 13L21.2002 10.5L15.5002 8.5L9.2002 10.8L14.9002 13Z" fill="#CFCFCF" stroke="#CFCFCF" stroke-miterlimit="10"/>
<path d="M35.3998 21.5996L29.7998 23.6996" stroke="#CFCFCF" stroke-miterlimit="10" stroke-linecap="round"/>
<path d="M35.7 26.9004L28.5 29.6004" stroke="#CFCFCF" stroke-miterlimit="10" stroke-linecap="round"/>
<path d="M35.3998 24.3008L29.7998 26.4008" stroke="#CFCFCF" stroke-miterlimit="10" stroke-linecap="round"/>
</g>
<defs>
<clipPath id="clip0_7095_16467">
<rect width="35.8" height="33.5" fill="white" transform="translate(2 3)"/>
</clipPath>
</defs>
</svg>
