<svg xmlns="http://www.w3.org/2000/svg" width="40" height="40" viewBox="0 0 40 40">
  <g id="b4cbb1c8-60af-48d7-baec-1d8c7df1c2b1" data-name="Слой 4">
    <path d="M37.5,23.8a9.12,9.12,0,0,0-.89-3.09,8.55,8.55,0,0,0-1.08-1.62A9,9,0,0,0,34.37,18a3.85,3.85,0,0,0-.34-.26,8.28,8.28,0,0,0-2.14-1.18l-.13-.06-1.65-.61-3.53,5.05,1.17.86.64.46a3.91,3.91,0,0,1,1,1,.88.88,0,0,1,.12.21A3.87,3.87,0,0,1,30,24.68a4.55,4.55,0,0,1,0,1.66,4.71,4.71,0,0,1-.86,1.95,6.2,6.2,0,0,1-1.65,1.58,7.89,7.89,0,0,1-2.24,1,10.86,10.86,0,0,1-2.23.39l-.55,0a6.24,6.24,0,0,1-1.36,0,3.85,3.85,0,0,1-1.67-.51,3.51,3.51,0,0,1-1-1s0-.09-.07-.12a5.48,5.48,0,0,1-.49-1.08,5.72,5.72,0,0,1-.31-1.05l0-.17-.36-1.8-6,.46L11,27.93c0,.05,0,.08,0,.13a8.24,8.24,0,0,0,0,1.57,6.37,6.37,0,0,0,.11.89,9.65,9.65,0,0,0,1,3.06c.13.25.27.48.41.7a10.56,10.56,0,0,0,2.8,2.85,11.79,11.79,0,0,0,4.56,2,13,13,0,0,0,3.59.25c.49,0,.91-.09,1.27-.14a16.69,16.69,0,0,0,4.69-1.39A14.56,14.56,0,0,0,34,34.73a13.56,13.56,0,0,0,2.94-4.63,12.55,12.55,0,0,0,.73-3.33A13,13,0,0,0,37.5,23.8ZM31.33,34a13.11,13.11,0,0,1-2.89,1.73,14.8,14.8,0,0,1-4,1.2,11.24,11.24,0,0,1-4.07-.08,9.54,9.54,0,0,1-3.7-1.59,9.67,9.67,0,0,1-1.19-1,7.38,7.38,0,0,1-1.34-1.79,8,8,0,0,1-.71-2c.6-.06,1.47-.16,2.69-.32h0a8.89,8.89,0,0,0,.45.84,5.51,5.51,0,0,0,4.27,2.57,10,10,0,0,0,2.44,0,12,12,0,0,0,2.7-.48,10.08,10.08,0,0,0,2.85-1.31A8.4,8.4,0,0,0,31,29.59a7,7,0,0,0,1.24-2.85,6.78,6.78,0,0,0,0-2.55A6.66,6.66,0,0,0,31.3,22l-.12-.17v0a19.5,19.5,0,0,0,1.67-2.15s0,0,.06.06a6.41,6.41,0,0,1,1.64,2,6.9,6.9,0,0,1,.68,2.41,10.63,10.63,0,0,1,.1,2.44,10.16,10.16,0,0,1-.6,2.73,11.12,11.12,0,0,1-2.43,3.81,9.8,9.8,0,0,1-1,.89Z" fill="#c9c9c9"/>
    <path d="M31,18.59l-1.24,1.77a6.38,6.38,0,0,1,1.44,1.46v0a19.5,19.5,0,0,0,1.67-2.15A6.78,6.78,0,0,0,31,18.59ZM15.37,28l-2.11.16a9.33,9.33,0,0,0,0,1.32,9.64,9.64,0,0,0,.14,1c.6-.06,1.47-.16,2.69-.32a8.14,8.14,0,0,1-.32-.78A8.91,8.91,0,0,1,15.37,28Z" fill="#c9c9c9"/>
    <path d="M35.34,26.59a10.16,10.16,0,0,1-.6,2.73,11.12,11.12,0,0,1-2.43,3.81,9.8,9.8,0,0,1-1,.89h0a13.11,13.11,0,0,1-2.89,1.73,14.8,14.8,0,0,1-4,1.2,11.24,11.24,0,0,1-4.07-.08,9.54,9.54,0,0,1-3.7-1.59,9.67,9.67,0,0,1-1.19-1,7.38,7.38,0,0,1-1.34-1.79,8,8,0,0,1-.71-2c.6-.06,1.47-.16,2.69-.32h0a8.89,8.89,0,0,0,.45.84,5.51,5.51,0,0,0,4.27,2.57,10,10,0,0,0,2.44,0,12,12,0,0,0,2.7-.48,10.08,10.08,0,0,0,2.85-1.31A8.4,8.4,0,0,0,31,29.59a7,7,0,0,0,1.24-2.85,6.78,6.78,0,0,0,0-2.55A6.66,6.66,0,0,0,31.3,22l-.12-.17v0a19.5,19.5,0,0,0,1.67-2.15s0,0,.06.06a6.41,6.41,0,0,1,1.64,2,6.9,6.9,0,0,1,.68,2.41A10.63,10.63,0,0,1,35.34,26.59Z" fill="#00b285"/>
    <path d="M17.49,20.75a4.35,4.35,0,0,1-3.42-1.32A17.63,17.63,0,0,1,12.36,17,5.43,5.43,0,0,0,11,15.41h0L9.3,14.55a7.12,7.12,0,0,1-4-6.26c.18-4.35,2.6-6.44,4.09-7a7.68,7.68,0,0,1,2.56-.6,10.72,10.72,0,0,1,1.6,0,7.46,7.46,0,0,1,4.58,2.26l.07.09A8.51,8.51,0,0,1,20,7.56,14.34,14.34,0,0,1,20,9.69c0,.17,0,.38,0,.5.24.52,1.14,2,1.9,3.2l.1.17.08.18A4.91,4.91,0,0,1,20,19.86,5.19,5.19,0,0,1,17.49,20.75Z" fill="#c9c9c9"/>
    <path d="M31.52,6.7a9.26,9.26,0,0,0-2.26-1,14,14,0,0,0-5.07-.48,24.79,24.79,0,0,0-3.29.48L19.69,6c-.42.12-.68.22-.71.23l-.18.06-.17.09a4.24,4.24,0,0,0-1,.72,3.86,3.86,0,0,0-1,4l.08.28,2.39,4.22a1.75,1.75,0,0,1-.5,1.46,3,3,0,0,1-1.15.35,1.24,1.24,0,0,1-.6-.09l-3.14-4.39a3.71,3.71,0,0,0-3.35-1.53,4,4,0,0,0-1.25.29h0a3.72,3.72,0,0,0-1.15.74A6.92,6.92,0,0,0,7.2,13a4,4,0,0,0-.28.29A28.11,28.11,0,0,0,3.53,18a8.45,8.45,0,0,0,0,8.56,7.73,7.73,0,0,0,3.54,3,12.63,12.63,0,0,0,4,1c.53.05.92.05,1.07.05h.19l1-.1c.6-.06,1.47-.16,2.69-.32h0a15,15,0,0,0,2.3-.49,29.9,29.9,0,0,0,5.4-2.24,36.44,36.44,0,0,0,5.71-4,18.45,18.45,0,0,0,1.67-1.63v0a19.5,19.5,0,0,0,1.67-2.15,17.22,17.22,0,0,0,1.17-2,12.21,12.21,0,0,0,.62-1.41A7.76,7.76,0,0,0,31.52,6.7ZM10.23,21.47c.89-.45,1.77-.48,2-.07s-.35,1.1-1.23,1.54S9.2,23.42,9,23,9.34,21.91,10.23,21.47ZM26,11.05c.88-.44,1.76-.48,2-.07s-.35,1.1-1.23,1.55-1.77.48-2,.06S25.14,11.5,26,11.05Z" fill="#c9c9c9"/>
    <path d="M30.21,8.78c-3.46-2.2-9-.7-10.19-.32l-.25.07A1.45,1.45,0,0,0,19,10.39l2.51,4.42s.54,3-1.69,4.34c-3.09,1.59-4.72-.15-4.72-.15l-3.38-4.71a1.45,1.45,0,0,0-2.21,0,2.29,2.29,0,0,0-.27.17,14.64,14.64,0,0,0-2.27,2.79c-.72,1.07-1.29,2-1.29,2s-1.86,3.12,0,6a4.77,4.77,0,0,0,1.34,1.38A9.25,9.25,0,0,0,11,28.06c.64.06,1.07.06,1.07.06s.77,0,3.73-.4a11.89,11.89,0,0,0,1.77-.37,29.85,29.85,0,0,0,5.06-2.07,35.19,35.19,0,0,0,5.13-3.53,15.83,15.83,0,0,0,1.6-1.56,17.86,17.86,0,0,0,2.54-3.68,6.93,6.93,0,0,0,.47-1.09A5.38,5.38,0,0,0,30.21,8.78ZM11,22.94c-.89.45-1.78.48-2,.08s.34-1.11,1.23-1.55,1.77-.48,2-.07S11.86,22.5,11,22.94ZM24.8,12.59c-.21-.4.34-1.09,1.23-1.54s1.76-.48,2-.07-.35,1.1-1.23,1.55S25,13,24.8,12.59Z" fill="#00b285"/>
    <path d="M27,13c-1.41.73-2.85.77-3.18.11s.56-1.76,2-2.49,2.85-.78,3.18-.12S28.43,12.26,27,13Z" fill="#c9c9c9"/>
    <path d="M11.15,23.29c-1.31.66-2.61.71-2.92.11s.51-1.62,1.82-2.29,2.62-.7,2.92-.09S12.46,22.64,11.15,23.29Z" fill="#c9c9c9"/>
    <path d="M10.32,12.51c1.48.74,1.9,1,2,1l-.16-.07a7,7,0,0,1,2.15,2.34,14.77,14.77,0,0,0,1.44,2.05,2.16,2.16,0,0,0,3,.1A2.67,2.67,0,0,0,20,14.63a30.6,30.6,0,0,1-2.2-3.87c-.16-.74.06-1.44-.13-3a6.25,6.25,0,0,0-1.28-3.29,5.17,5.17,0,0,0-3.1-1.5,5.92,5.92,0,0,0-3,.4s-2.54.92-2.7,5A4.81,4.81,0,0,0,10.32,12.51ZM8.93,7.16A2.58,2.58,0,0,1,9.31,6c.23-.37.54-.66.63-.64s0,.69.09,1.8a2.39,2.39,0,0,0,.28,1.15,1,1,0,0,1,.24.52.45.45,0,0,1-.08.33c-.15.14-.42.06-.53,0a1.42,1.42,0,0,1-.76-.59A2,2,0,0,1,8.93,7.16Z" fill="#00b285"/>
  </g>
</svg>
