<svg width="40" height="40" viewBox="0 0 40 40" fill="none" xmlns="http://www.w3.org/2000/svg">
<g clip-path="url(#clip0_7095_16470)">
<path d="M11.7997 32.7C11.6997 32.7 11.5997 32.7 11.4997 32.7C9.39971 32.3 7.99971 30.7 7.89971 28.5C7.79971 26.9 8.49971 25.4 9.79971 24.4L7.19971 12.2V12.1C6.89971 10.8 6.19971 9.7 5.49971 9.3C5.29971 9.2 4.99971 9.1 4.79971 9.1C4.49971 9.1 4.29971 9.2 3.99971 9.3C3.79971 9.4 3.59971 9.4 3.29971 9.4C2.59971 9.4 1.89971 9 1.59971 8.3C1.39971 7.9 1.39971 7.4 1.59971 6.9C1.79971 6.5 2.09971 6.1 2.59971 5.9C3.29971 5.6 3.99971 5.5 4.69971 5.5C5.59971 5.5 6.39971 5.7 7.19971 6.1C8.59971 6.8 9.69971 8.2 10.2997 9.9H36.7997C37.2997 9.9 37.7997 10.1 38.1997 10.5C38.4997 10.9 38.6997 11.4 38.6997 11.9L37.1997 25.5C37.0997 26.4 36.2997 27.1 35.3997 27.1H12.0997C11.4997 27.4 11.4997 28.1 11.4997 28.2C11.4997 28.6 11.6997 28.9 11.9997 29H31.6997C32.6997 29 33.4997 29.8 33.4997 30.8C33.4997 31.8 32.6997 32.6 31.6997 32.6H11.7997V32.7ZM33.6997 23.5L33.9997 20.6H28.7997V23.5H33.6997ZM25.1997 23.5V20.6H19.9997V23.5H25.1997ZM16.3997 23.5V20.6H12.6997L13.2997 23.5H16.3997ZM34.4997 17L34.8997 13.6H28.8997V17H34.4997ZM25.1997 17V13.6H19.9997V17H25.1997ZM16.3997 17V13.6H11.1997L11.8997 17H16.3997Z" fill="#00B285"/>
<path d="M4.7998 6C5.5998 6 6.2998 6.2 6.9998 6.6C8.3998 7.3 9.3998 8.7 9.9998 10.5H36.8998C37.2998 10.5 37.5998 10.7 37.8998 10.9C38.1998 11.2 38.2998 11.5 38.1998 11.9L37.3998 18.9L36.6998 25.4C36.5998 26.1 36.0998 26.6 35.3998 26.6H11.9998C11.1998 26.9 10.9998 27.7 10.9998 28.3C10.9998 28.6 11.0998 29.3 11.8998 29.5H31.6998C32.3998 29.5 32.9998 30.1 32.9998 30.8C32.9998 31.5 32.3998 32.1 31.6998 32.1H11.6998C11.5998 32.1 11.4998 32.1 11.3998 32.1C9.5998 31.8 8.2998 30.3 8.1998 28.4C8.0998 26.8 8.89981 25.4 10.0998 24.6L8.9998 19.1L7.5998 12C7.2998 10.5 6.5998 9.3 5.6998 8.9C5.3998 8.7 5.0998 8.7 4.6998 8.7C4.3998 8.7 4.0998 8.8 3.6998 8.9C3.6998 8.9 3.4998 8.9 3.2998 8.9C2.7998 8.9 2.2998 8.6 2.0998 8.1C1.7998 7.4 2.1998 6.7 2.7998 6.4C3.4998 6.1 4.0998 6 4.7998 6ZM28.3998 17.5H34.8998L35.3998 13.1H28.3998V17.5ZM19.4998 17.5H25.6998V13.1H19.4998V17.5ZM11.4998 17.5H16.8998V13.1H10.5998L11.4998 17.5ZM28.3998 24H34.1998L34.5998 20.1H28.3998V24ZM19.4998 24H25.6998V20.1H19.4998V24ZM12.7998 24H16.7998V20.1H11.9998L12.7998 24ZM4.7998 5V6V5C3.9998 5 3.1998 5.2 2.4998 5.5C1.8998 5.7 1.4998 6.2 1.1998 6.7C0.999805 7.3 0.999805 7.9 1.1998 8.5C1.5998 9.4 2.3998 9.9 3.3998 9.9C3.6998 9.9 3.9998 9.8 4.2998 9.7C4.4998 9.6 4.6998 9.6 4.8998 9.6C5.0998 9.6 5.1998 9.6 5.3998 9.7C5.8998 10.1 6.3998 11 6.6998 12.2V12.3L8.0998 19.3L9.0998 24.2C7.89981 25.3 7.1998 26.8 7.2998 28.5C7.3998 30.9 8.9998 32.7 11.2998 33.1C11.3998 33.1 11.5998 33.1 11.6998 33.1H31.6998C32.9998 33.1 33.9998 32.1 33.9998 30.8C33.9998 29.5 32.9998 28.5 31.6998 28.5H12.0998C12.0998 28.5 11.9998 28.4 11.9998 28.2C11.9998 28.1 11.9998 27.8 12.1998 27.6H35.2998C36.4998 27.6 37.4998 26.7 37.5998 25.5L38.2998 19L39.0998 12C39.1998 11.3 38.9998 10.7 38.4998 10.2C38.0998 9.7 37.3998 9.4 36.7998 9.4H10.6998C9.9998 7.8 8.8998 6.4 7.4998 5.7C6.5998 5.2 5.6998 5 4.7998 5ZM29.3998 14.1H34.2998L33.9998 16.5H29.3998V14.1ZM20.4998 14.1H24.6998V16.5H20.4998V14.1ZM11.7998 14.1H15.8998V16.5H12.2998L11.7998 14.1ZM29.3998 21.1H33.4998L33.2998 23H29.3998V21.1ZM20.4998 21.1H24.6998V23H20.4998V21.1ZM13.2998 21.1H15.8998V23H13.6998L13.2998 21.1Z" fill="#CFCFCF"/>
<path d="M32.3999 34.0996C30.6999 34.0996 29.3999 32.7996 29.3999 31.0996C29.3999 29.3996 30.7999 28.0996 32.3999 28.0996C34.0999 28.0996 35.3999 29.3996 35.3999 31.0996C35.3999 32.7996 34.0999 34.0996 32.3999 34.0996Z" fill="#00B285"/>
<path d="M32.3999 28.6992C33.7999 28.6992 34.8999 29.7992 34.8999 31.1992C34.8999 32.5992 33.7999 33.6992 32.3999 33.6992C30.9999 33.6992 29.8999 32.5992 29.8999 31.1992C29.8999 29.7992 30.9999 28.6992 32.3999 28.6992ZM32.3999 27.6992C30.4999 27.6992 28.8999 29.2992 28.8999 31.1992C28.8999 33.0992 30.4999 34.6992 32.3999 34.6992C34.2999 34.6992 35.8999 33.0992 35.8999 31.1992C35.8999 29.2992 34.3999 27.6992 32.3999 27.6992Z" fill="#CFCFCF"/>
<path d="M15.7998 34.0996C14.0998 34.0996 12.7998 32.7996 12.7998 31.0996C12.7998 29.3996 14.1998 28.0996 15.7998 28.0996C17.4998 28.0996 18.7998 29.3996 18.7998 31.0996C18.7998 32.7996 17.4998 34.0996 15.7998 34.0996Z" fill="#00B285"/>
<path d="M15.7998 28.6992C17.1998 28.6992 18.2998 29.7992 18.2998 31.1992C18.2998 32.5992 17.1998 33.6992 15.7998 33.6992C14.3998 33.6992 13.2998 32.5992 13.2998 31.1992C13.2998 29.7992 14.3998 28.6992 15.7998 28.6992ZM15.7998 27.6992C13.8998 27.6992 12.2998 29.2992 12.2998 31.1992C12.2998 33.0992 13.8998 34.6992 15.7998 34.6992C17.6998 34.6992 19.2998 33.0992 19.2998 31.1992C19.2998 29.2992 17.7998 27.6992 15.7998 27.6992Z" fill="#CFCFCF"/>
</g>
<defs>
<clipPath id="clip0_7095_16470">
<rect width="38.2" height="29.6" fill="white" transform="translate(1 5)"/>
</clipPath>
</defs>
</svg>
