<svg width="40" height="40" viewBox="0 0 40 40" fill="none" xmlns="http://www.w3.org/2000/svg">
<g clip-path="url(#clip0_7095_16472)">
<path d="M14.8999 36.2012V30.7012H17.0999V22.1012H23.6999V18.3012H22.3999V14.8012H23.6999V13.1012H24.6999V10.2012C24.6999 9.90117 24.6999 7.50117 25.9999 6.70117C25.9999 6.70117 25.9999 6.60117 25.9999 6.50117C25.9999 6.00117 26.3999 5.70117 26.7999 5.70117C27.1999 5.70117 27.5999 6.10117 27.5999 6.50117C27.5999 6.60117 27.5999 6.60117 27.5999 6.70117C28.8999 7.50117 28.9999 9.90117 28.9999 10.2012V13.1012H29.6999V30.7012H31.8999V36.2012H14.8999ZM27.6999 12.2012V10.7012H25.9999V12.3012H27.6999V12.2012Z" fill="#00B285"/>
<path d="M26.8999 6.10039C27.0999 6.10039 27.3999 6.30039 27.3999 6.60039C27.3999 6.70039 27.2999 6.90039 27.1999 7.00039C28.6999 7.40039 28.6999 10.3004 28.6999 10.3004V13.6004H29.3999V31.2004H31.5999V35.9004H15.2999V31.2004H17.4999V22.6004H24.0999V18.0004H22.7999V15.3004H24.0999V13.5004H24.9999V10.2004C24.9999 10.2004 24.9999 7.20039 26.4999 6.90039C26.3999 6.80039 26.2999 6.70039 26.2999 6.60039C26.3999 6.30039 26.5999 6.10039 26.8999 6.10039ZM25.5999 12.6004H27.9999V10.3004H25.5999V12.6004ZM26.8999 5.40039C26.2999 5.40039 25.6999 5.90039 25.6999 6.60039C24.3999 7.60039 24.3999 10.0004 24.3999 10.3004V12.9004H24.1999H23.3999V13.7004V14.7004H22.7999H21.9999V15.5004V18.2004V19.0004H22.7999H23.3999V22.1004H17.4999H16.6999V22.9004V30.7004H15.1999H14.3999V31.5004V36.2004V37.0004H15.1999H31.3999H32.1999V36.2004V31.5004V30.7004H31.3999H29.8999V13.5004V12.8004H29.1999V10.2004C29.1999 9.90039 29.1999 7.50039 27.8999 6.60039C28.0999 5.90039 27.4999 5.40039 26.8999 5.40039ZM26.3999 11.0004H27.2999V11.8004H26.3999V11.0004Z" fill="#CFCFCF"/>
<path d="M26.1997 36.1996L26.4997 35.5996C26.5997 35.3996 29.1997 31.0996 33.1997 30.5996C33.3997 30.5996 33.5997 30.5996 33.6997 30.5996C37.3997 30.5996 38.2997 35.4996 38.2997 35.7996L38.3997 36.1996H26.1997Z" fill="#00B285"/>
<path d="M33.6999 30.8992C37.0999 30.8992 37.8999 35.6992 37.8999 35.6992H31.4999H26.7999C26.7999 35.6992 29.3999 31.3992 33.1999 30.8992C33.3999 30.9992 33.5999 30.8992 33.6999 30.8992ZM33.6999 30.1992C33.4999 30.1992 33.2999 30.1992 33.0999 30.1992C28.8999 30.6992 26.1999 35.1992 26.0999 35.3992L25.3999 36.4992H26.6999H31.3999H37.9999H38.8999L38.7999 35.5992C38.6999 35.3992 37.6999 30.1992 33.6999 30.1992Z" fill="#CFCFCF"/>
<path d="M1.6001 36.2012L1.8001 35.7012C1.8001 35.6012 4.9001 29.2012 11.2001 29.2012C12.2001 29.2012 13.3001 29.4012 14.5001 29.7012C22.9001 32.4012 23.5001 35.6012 23.5001 35.8012L23.6001 36.2012H1.6001Z" fill="#00B285"/>
<path d="M11.2 29.5008C12.2 29.5008 13.2 29.7008 14.3 30.0008C22.6 32.6008 23.1 35.8008 23.1 35.8008H15.3H2.2C2.2 35.8008 5.1 29.5008 11.2 29.5008ZM11.2 28.8008C4.7 28.8008 1.6 35.3008 1.5 35.5008L1 36.5008H2.2H15.3H23.1H24L23.9 35.6008C23.8 35.2008 23.1 31.9008 14.6 29.2008C13.4 28.9008 12.3 28.8008 11.2 28.8008Z" fill="#CFCFCF"/>
<path d="M1.7998 4.5L20.2998 10.5C20.6998 10.6 20.8998 11 20.8998 11.4C20.8998 11.8 20.5998 12.1 20.1998 12.2L1.7998 16.7V4.5Z" fill="#00B285"/>
<path d="M2.1999 5L20.1999 10.8C20.6999 11 20.6999 11.7 20.1999 11.8L2.1999 16.1V5ZM1.3999 4V5V16.2V17.2L2.2999 17L20.2999 12.7C20.8999 12.6 21.1999 12.1 21.2999 11.5C21.2999 10.9 20.9999 10.4 20.3999 10.2L2.3999 4.4L1.3999 4Z" fill="#CFCFCF"/>
<path d="M32.7998 12.1C32.4998 12 32.2998 11.8 32.2998 11.5C32.2998 11.2 32.4998 10.9 32.7998 10.8L38.3998 9V13.5L32.7998 12.1Z" fill="#00B285"/>
<path d="M37.9 9.40039V12.9004L32.8 11.7004C32.5 11.6004 32.5 11.2004 32.8 11.1004L37.9 9.40039ZM38.7 8.40039L37.7 8.70039L32.6 10.4004C32.1 10.5004 31.8 11.0004 31.9 11.5004C31.9 12.0004 32.2 12.4004 32.7 12.5004L37.8 13.7004L38.7 13.9004V12.9004V9.40039V8.40039Z" fill="#CFCFCF"/>
</g>
<defs>
<clipPath id="clip0_7095_16472">
<rect width="37.8" height="32.5" fill="white" transform="translate(1 4)"/>
</clipPath>
</defs>
</svg>
