<svg width="48" height="48" viewBox="0 0 48 48" fill="#00b285" xmlns="http://www.w3.org/2000/svg">
<g clip-path="url(#clip0_7325_19246)">
<path fill-rule="evenodd" clip-rule="evenodd" d="M28.3635 20.7274C28.3635 21.8847 27.9038 22.9946 27.0854 23.813C26.2671 24.6313 25.1572 25.091 23.9999 25.091C22.8426 25.091 21.7327 24.6313 20.9143 23.813C20.096 22.9946 19.6362 21.8847 19.6362 20.7274C19.6362 19.5701 20.096 18.4602 20.9143 17.6418C21.7327 16.8235 22.8426 16.3638 23.9999 16.3638C25.1572 16.3638 26.2671 16.8235 27.0854 17.6418C27.9038 18.4602 28.3635 19.5701 28.3635 20.7274ZM26.1817 20.7274C26.1817 21.3061 25.9518 21.861 25.5426 22.2702C25.1335 22.6794 24.5785 22.9092 23.9999 22.9092C23.4212 22.9092 22.8663 22.6794 22.4571 22.2702C22.0479 21.861 21.818 21.3061 21.818 20.7274C21.818 20.1488 22.0479 19.5938 22.4571 19.1846C22.8663 18.7755 23.4212 18.5456 23.9999 18.5456C24.5785 18.5456 25.1335 18.7755 25.5426 19.1846C25.9518 19.5938 26.1817 20.1488 26.1817 20.7274Z" fill="#00b285"/>
<path fill-rule="evenodd" clip-rule="evenodd" d="M24 12C17.3727 12 12 17.3727 12 24C12 30.6273 17.3727 36 24 36C30.6273 36 36 30.6273 36 24C36 17.3727 30.6273 12 24 12ZM14.1818 24C14.1818 26.28 14.9596 28.3789 16.2633 30.0458C17.1788 28.8435 18.3599 27.8692 19.7143 27.1989C21.0687 26.5286 22.5597 26.1805 24.0709 26.1818C25.5625 26.1804 27.0348 26.5195 28.3756 27.1732C29.7163 27.827 30.8901 28.7781 31.8076 29.9542C32.7529 28.7145 33.3893 27.2675 33.6642 25.733C33.9392 24.1985 33.8448 22.6206 33.3889 21.1298C32.933 19.639 32.1286 18.2782 31.0423 17.16C29.9561 16.0418 28.6192 15.1984 27.1422 14.6995C25.6653 14.2005 24.0908 14.0605 22.5489 14.2909C21.0071 14.5213 19.5423 15.1155 18.2757 16.0244C17.0092 16.9333 15.9772 18.1308 15.2653 19.5177C14.5534 20.9046 14.182 22.4411 14.1818 24ZM24 33.8182C21.7461 33.8216 19.5603 33.0462 17.8124 31.6233C18.5159 30.6161 19.4524 29.7937 20.542 29.2262C21.6317 28.6587 22.8423 28.3628 24.0709 28.3636C25.2842 28.3627 26.4802 28.6512 27.5596 29.2052C28.6389 29.7592 29.5706 30.5628 30.2771 31.5491C28.5156 33.0182 26.2937 33.8214 24 33.8182Z" fill="#00b285"/>
</g>
<defs>
<clipPath id="clip0_7325_19246">
<rect x="4" y="4" width="40" height="40" rx="20" fill="#00b285"/>
</clipPath>
</defs>
</svg>
