<svg width="17" height="17" viewBox="0 0 17 17" fill="none" xmlns="http://www.w3.org/2000/svg">
<path d="M16.8203 9.64861C16.7613 9.45488 16.6411 9.28549 16.4777 9.16578C16.3143 9.04608 16.1166 8.98249 15.9141 8.98454C15.8263 8.98737 15.7394 9.00317 15.6563 9.03142C14.5916 9.32365 13.4684 9.32863 12.4012 9.04584C11.3339 8.76305 10.3606 8.20259 9.58032 7.42149C8.80001 6.64039 8.24055 5.66652 7.95884 4.59898C7.67714 3.53144 7.68326 2.40833 7.97658 1.34392C7.99463 1.2723 8.0051 1.19898 8.00783 1.12517C8.01874 0.929548 7.96809 0.735428 7.86299 0.570078C7.7579 0.404728 7.60364 0.276459 7.42189 0.203292C7.22485 0.126894 7.00845 0.115937 6.8047 0.172042C5.43975 0.556034 4.19905 1.29055 3.20591 2.30259C2.21276 3.31463 1.50176 4.56895 1.14356 5.9409C0.785365 7.31285 0.79244 8.75465 1.16409 10.123C1.53573 11.4914 2.25901 12.7387 3.26203 13.7409C4.26506 14.7432 5.51291 15.4655 6.88156 15.836C8.25022 16.2066 9.69203 16.2126 11.0637 15.8533C12.4354 15.494 13.6891 14.7821 14.7004 13.7881C15.7117 12.7942 16.4452 11.5529 16.8281 10.1877C16.8762 10.0108 16.8735 9.824 16.8203 9.64861ZM9.00002 14.2502C7.62189 14.252 6.28181 13.7982 5.18826 12.9596C4.09472 12.1209 3.30903 10.9443 2.95344 9.61283C2.59785 8.28137 2.69229 6.86971 3.22208 5.59749C3.75188 4.32527 4.6873 3.26382 5.88283 2.57829C5.8257 3.71475 6.00746 4.85056 6.41637 5.91244C6.82529 6.97432 7.45228 7.93868 8.2569 8.74329C9.06151 9.5479 10.0259 10.1749 11.0877 10.5838C12.1496 10.9927 13.2854 11.1745 14.4219 11.1174C13.8711 12.0682 13.0806 12.8578 12.1292 13.4076C11.1778 13.9573 10.0988 14.2478 9.00002 14.2502Z" fill="#00B285"/>
</svg>
