<svg width="12" height="15" viewBox="0 0 12 15" fill="none" xmlns="http://www.w3.org/2000/svg">
<path d="M0 15V0H6.24C7.36 0 8.34909 0.181208 9.20727 0.543624C10.08 0.90604 10.7636 1.44295 11.2582 2.15436C11.7527 2.86577 12 3.74497 12 4.79195C12 5.81208 11.7455 6.67785 11.2364 7.38926C10.7418 8.10067 10.0582 8.6443 9.18545 9.02013C8.32727 9.38255 7.34545 9.56376 6.24 9.56376H3.38182V15H0ZM3.38182 6.84564H6.26182C6.74182 6.84564 7.15636 6.75839 7.50545 6.58389C7.85455 6.4094 8.12364 6.16779 8.31273 5.85906C8.51636 5.55034 8.61818 5.19463 8.61818 4.79195C8.61818 4.37584 8.51636 4.01342 8.31273 3.7047C8.12364 3.39597 7.85455 3.15436 7.50545 2.97987C7.15636 2.80537 6.74182 2.71812 6.26182 2.71812H3.38182V6.84564Z" fill="#D934BE"/>
</svg>
