<svg width="40" height="40" viewBox="0 0 40 40" fill="none" xmlns="http://www.w3.org/2000/svg">
<g clip-path="url(#clip0_7095_16469)">
<path d="M20.5999 38.6004C16.1999 38.6004 10.6999 38.2004 9.4999 37.0004L9.3999 36.9004V34.9004L10.4999 34.2004C9.7999 33.3004 9.4999 32.5004 9.5999 31.7004C9.7999 30.5004 10.8999 29.4004 12.7999 28.4004L13.3999 26.5004L14.4999 25.9004C16.5999 20.8004 15.4999 16.5004 14.9999 15.1004C14.5999 15.0004 14.1999 15.0004 13.7999 14.9004H13.5999L12.9999 13.2004L15.6999 12.1004C14.3999 11.0004 13.5999 9.30039 13.5999 7.50039C13.5999 4.10039 16.3999 1.40039 19.7999 1.40039C23.1999 1.40039 25.9999 4.10039 25.9999 7.50039C25.9999 9.20039 25.1999 10.9004 23.8999 12.0004L26.5999 13.0004L26.1999 14.8004L25.9999 14.9004C25.4999 15.0004 25.0999 15.1004 24.5999 15.2004C22.8999 21.6004 24.6999 25.4004 24.9999 25.9004L26.1999 26.6004L26.5999 28.3004C28.7999 29.4004 30.0999 30.8004 30.1999 32.2004C30.2999 33.0004 29.9999 33.8004 29.2999 34.3004L30.1999 35.0004V36.9004C30.1999 37.6004 29.2999 38.0004 26.9999 38.3004C25.2999 38.5004 22.9999 38.6004 20.5999 38.6004Z" fill="#00B285"/>
<path d="M19.8 1.8C23 1.8 25.7 4.4 25.7 7.5C25.7 9.4 24.7 11.1 23.3 12.2L26.3 13.4L26 14.6C25.5 14.7 24.9 14.8 24.4 14.9C22.4 22.3 24.8 26.3 24.8 26.3L26 26.9L26.4 28.6C30.6 30.7 30.6 33.2 28.8 34.5L29.9 35.3V37C29.9 37.9 25.4 38.4 20.6 38.4C15.8 38.4 10.7 37.9 9.8 37V35.4L11 34.3C9 32.2 9.7 30.4 13.1 28.7L13.7 26.8L14.7 26.2C17.1 20.6 15.6 15.9 15.2 14.8C14.8 14.7 14.3 14.6 13.9 14.5L13.5 13.4L16.5 12.2C15 11.2 13.9 9.4 13.9 7.5C13.9 4.3 16.5 1.8 19.8 1.8ZM19.8 1C16.1 1 13.2 3.9 13.2 7.5C13.2 9.2 13.9 10.8 15 12L13.2 12.7L12.5 13L12.8 13.7L13.2 14.8L13.3 15.2L13.7 15.3C14 15.4 14.3 15.4 14.6 15.5C15.1 17.1 16 21 14.1 25.7L13.3 26.2L13.1 26.3L13 26.6L12.5 28.2C10.5 29.3 9.4 30.4 9.2 31.7C9.1 32.5 9.3 33.4 9.9 34.2L9.4 34.6L9 34.8V35.2V36.8V37.1L9.2 37.3C10.8 38.9 18.9 39 20.6 39C30.6 39 30.6 37.4 30.6 36.8V35.1V34.7L30.3 34.5L29.9 34.2C30.4 33.6 30.6 32.8 30.6 32.1C30.5 31 29.8 29.4 27 27.9L26.7 26.6L26.6 26.3L26.3 26.1L25.3 25.6C24.9 24.8 23.4 21.3 24.9 15.5C25.3 15.4 25.7 15.4 26.1 15.3L26.6 15.2L26.7 14.7L27 13.5L27.1 12.9L26.5 12.7L24.7 12C25.8 10.8 26.5 9.2 26.5 7.6C26.4 3.9 23.4 1 19.8 1Z" fill="#CFCFCF"/>
</g>
<defs>
<clipPath id="clip0_7095_16469">
<rect width="21.6" height="38" fill="white" transform="translate(9 1)"/>
</clipPath>
</defs>
</svg>
