<svg width="40" height="40" viewBox="0 0 40 40" fill="none" xmlns="http://www.w3.org/2000/svg">
<g clip-path="url(#clip0_7095_16474)">
<path d="M29.3999 33.9991C29.3999 33.9991 28.2999 34.8991 26.7999 34.6991C25.2999 34.4991 23.2999 33.0991 19.8999 33.9991C16.4999 34.7991 16.5999 38.1991 12.3999 37.5991C9.79994 37.1991 8.79994 35.0991 8.79994 35.0991C8.79994 35.0991 4.89994 35.0991 4.19994 31.3991C3.49994 27.6991 7.19994 25.9991 7.19994 25.9991C8.19994 23.3991 9.19994 20.8991 10.0999 18.3991C8.59994 18.0991 7.59994 17.2991 7.59994 16.2991C7.59994 15.9991 7.69994 15.6991 7.89994 15.4991C7.09994 15.2991 6.49994 14.9991 5.89994 14.6991C4.69994 13.8991 4.09994 10.6991 5.89994 9.29908C6.89994 8.29908 10.0999 7.89908 13.3999 7.89908C13.4999 7.39908 13.6999 6.79908 13.7999 6.29908C14.8999 2.59908 20.3999 1.79908 22.6999 6.29908C25.6999 10.9991 29.4999 15.6991 31.3999 19.9991C35.8999 19.2991 37.3999 24.8991 33.1999 26.5991C38.4999 30.0991 35.1999 35.6991 29.3999 33.9991Z" fill="#00B285"/>
<path d="M27.2 22.8992C27.2 21.1992 27.7 20.1992 29.6 21.7992L22 12.1992L27.2 22.8992Z" fill="#CFCFCF"/>
<path d="M32.9997 22.2988C22.2997 25.4988 13.0997 28.5988 9.19971 30.8988C19.2997 27.4988 24.1997 26.3988 25.9997 29.3988C27.0997 27.0988 29.1997 24.6988 32.9997 22.2988Z" fill="#CFCFCF"/>
<path d="M30.7997 30.9C29.3997 29.4 27.0997 28.1 23.9997 27C18.0997 28.5 14.7997 30.7 12.1997 33C19.2997 29.6 24.1997 28.6 26.5997 31.9C26.5997 31.9 26.9997 30.8 28.0997 30.4C29.1997 30 30.7997 30.9 30.7997 30.9Z" fill="#CFCFCF"/>
<path d="M18.1998 6.79883C17.5998 10.2988 16.8998 13.3988 16.1998 16.0988C16.3998 16.2988 16.3998 16.4988 16.3998 16.4988C16.3998 16.4988 16.6998 15.7988 17.4998 15.0988C18.2998 14.3988 19.4998 14.0988 19.4998 14.0988C17.8998 15.2988 16.8998 16.5988 16.5998 17.9988C16.3998 17.5988 16.1998 17.2988 15.9998 16.9988C14.6998 21.6988 13.0998 25.1988 11.2998 27.6988C16.8998 23.5988 22.3998 21.4988 27.3998 24.4988C24.7998 18.9988 21.6998 12.9988 18.1998 6.79883Z" fill="#CFCFCF"/>
<path d="M14.5997 15.2989C12.8997 14.8989 11.6997 15.2989 11.6997 15.2989C13.5997 15.2989 14.9997 15.7989 15.9997 16.9989C16.0997 16.6989 16.1997 16.3989 16.2997 16.0989C15.9997 15.7989 15.4997 15.4989 14.5997 15.2989Z" fill="#CFCFCF"/>
<path d="M14.4997 11.0996C14.4997 11.0996 13.1997 11.0996 12.5997 11.3996C11.8997 11.5996 11.4997 12.0996 11.4997 12.0996C11.4997 12.0996 11.2997 11.7996 10.5997 11.5996C9.89971 11.3996 8.69971 11.4996 8.69971 11.4996C10.1997 11.6996 11.1997 12.4996 11.6997 13.4996C12.1997 12.1996 12.8997 11.4996 14.4997 11.0996Z" fill="#CFCFCF"/>
</g>
<defs>
<clipPath id="clip0_7095_16474">
<rect width="31.8" height="34.6" fill="white" transform="translate(4 3)"/>
</clipPath>
</defs>
</svg>
