<svg width="32" height="32" viewBox="0 0 32 32" fill="none" xmlns="http://www.w3.org/2000/svg">
<rect x="3" y="3" width="26" height="26" rx="5" fill="#00B285"/>
<path d="M22.95 9.51872C22.7572 9.35834 22.5245 9.25323 22.2768 9.21457C22.029 9.17592 21.7754 9.20517 21.5429 9.2992L9.40896 14.1981C9.14947 14.3049 8.92858 14.4881 8.77562 14.7233C8.62265 14.9585 8.54484 15.2347 8.55252 15.5152C8.5602 15.7957 8.65299 16.0672 8.8186 16.2938C8.9842 16.5203 9.21477 16.6911 9.47971 16.7835L11.9341 17.6371L13.3022 22.1611C13.3208 22.2216 13.3478 22.2791 13.3823 22.332C13.3876 22.3402 13.395 22.3462 13.4006 22.3541C13.4405 22.4098 13.4888 22.4591 13.5437 22.5002C13.5593 22.5121 13.5743 22.5232 13.591 22.5338C13.6553 22.5765 13.7265 22.6076 13.8014 22.626L13.8094 22.6267L13.8139 22.6286C13.859 22.6378 13.9048 22.6424 13.9508 22.6425C13.9552 22.6425 13.9592 22.6404 13.9635 22.6403C14.0329 22.6391 14.1017 22.6271 14.1674 22.6049C14.1827 22.5997 14.1958 22.5909 14.2106 22.5847C14.2596 22.5644 14.3061 22.5383 14.349 22.5071C14.3833 22.4782 14.4177 22.4492 14.452 22.4203L16.2816 20.4003L19.0104 22.5142C19.2507 22.7012 19.5464 22.8029 19.8508 22.8032C20.1699 22.8028 20.4791 22.6927 20.7266 22.4914C20.9741 22.2901 21.1449 22.0098 21.2103 21.6976L23.4194 10.8531C23.4695 10.609 23.4522 10.3559 23.3696 10.1208C23.2869 9.88581 23.1418 9.67768 22.95 9.51872V9.51872ZM14.2193 17.8527C14.1254 17.9462 14.0612 18.0653 14.0348 18.1952L13.8253 19.2135L13.2944 17.4578L16.0469 16.0244L14.2193 17.8527ZM19.8403 21.4437L16.6155 18.9456C16.4806 18.8414 16.3114 18.7918 16.1415 18.8067C15.9717 18.8217 15.8137 18.9001 15.6991 19.0263L15.1131 19.673L15.3202 18.6666L20.116 13.8708C20.2305 13.7565 20.3002 13.605 20.3126 13.4437C20.325 13.2824 20.2792 13.1219 20.1835 12.9915C20.0878 12.861 19.9486 12.7692 19.791 12.7325C19.6334 12.6959 19.468 12.7169 19.3245 12.7917L12.4418 16.3753L9.92008 15.4525L22.093 10.5826L19.8403 21.4437Z" fill="#2A2A2A"/>
</svg>
