<svg width="32" height="32" viewBox="0 0 32 32" fill="none" xmlns="http://www.w3.org/2000/svg">
<path d="M20.0972 2.66663H11.9166C4.44437 2.66663 2.66663 4.44437 2.66663 11.9027V20.0833C2.66663 27.5555 4.43055 29.3333 11.9027 29.3333H20.0833C27.5555 29.3333 29.3333 27.5694 29.3333 20.0971V11.9166C29.3333 4.44437 27.5694 2.66663 20.0972 2.66663ZM24.1944 21.6944H22.25C21.5139 21.6944 21.2916 21.0971 19.9722 19.7777C18.8194 18.6666 18.3333 18.5277 18.0416 18.5277C17.6389 18.5277 17.5277 18.6388 17.5277 19.1944V20.9444C17.5277 21.4166 17.375 21.6944 16.1389 21.6944C14.9394 21.6138 13.7762 21.2494 12.7451 20.6312C11.7141 20.0131 10.8446 19.1588 10.2083 18.1388C8.69777 16.2587 7.64677 14.052 7.13888 11.6944C7.13888 11.4027 7.24996 11.1388 7.80555 11.1388H9.74996C10.25 11.1388 10.4305 11.361 10.625 11.875C11.5694 14.6527 13.1805 17.0694 13.8333 17.0694C14.0833 17.0694 14.1944 16.9583 14.1944 16.3333V13.4721C14.111 12.1666 13.4166 12.0555 13.4166 11.5833C13.4258 11.4587 13.4831 11.3426 13.5765 11.2596C13.6698 11.1766 13.7918 11.1333 13.9166 11.1388H16.9722C17.3889 11.1388 17.5277 11.3471 17.5277 11.8471V15.7083C17.5277 16.125 17.7083 16.2638 17.8333 16.2638C18.0833 16.2638 18.2777 16.125 18.736 15.6666C19.721 14.4655 20.5257 13.1274 21.125 11.6944C21.1861 11.5219 21.3021 11.3743 21.4551 11.274C21.6081 11.1736 21.7897 11.1262 21.9722 11.1388H23.9166C24.5 11.1388 24.625 11.4305 24.5 11.8471C23.7924 13.4315 22.9171 14.9355 21.8889 16.3333C21.6805 16.6527 21.5972 16.8194 21.8889 17.1944C22.0833 17.486 22.7639 18.0555 23.2222 18.5971C23.8889 19.2621 24.4424 20.0315 24.861 20.875C25.0277 21.4166 24.75 21.6944 24.1944 21.6944Z" fill="#00B285"/>
</svg>
