<svg width="32" height="32" viewBox="0 0 32 32" fill="none" xmlns="http://www.w3.org/2000/svg">
<path d="M28.9483 9.31053C28.6933 7.90303 27.4783 6.87803 26.0683 6.55803C23.9583 6.11053 20.0533 5.79053 15.8283 5.79053C11.6058 5.79053 7.6383 6.11053 5.5258 6.55803C4.1183 6.87803 2.9008 7.83803 2.6458 9.31053C2.3883 10.9105 2.1333 13.1505 2.1333 16.0305C2.1333 18.9105 2.3883 21.1505 2.7083 22.7505C2.9658 24.158 4.1808 25.183 5.5883 25.503C7.8283 25.9505 11.6683 26.2705 15.8933 26.2705C20.1183 26.2705 23.9583 25.9505 26.1983 25.503C27.6058 25.183 28.8208 24.223 29.0783 22.7505C29.3333 21.1505 29.6533 18.8455 29.7183 16.0305C29.5883 13.1505 29.2683 10.9105 28.9483 9.31053ZM12.3733 20.5105V11.5505L20.1808 16.0305L12.3733 20.5105Z" fill="#00B285"/>
</svg>
