<svg width="32" height="32" viewBox="0 0 32 32" fill="none" xmlns="http://www.w3.org/2000/svg">
<path d="M13.5178 14.1731H13.5176C13.1453 14.1732 12.7882 14.3211 12.525 14.5844C12.2617 14.8476 12.1138 15.2047 12.1138 15.577C12.1138 15.9493 12.2617 16.3064 12.525 16.5697C12.7883 16.8329 13.1454 16.9808 13.5177 16.9808C13.89 16.9808 14.247 16.8329 14.5103 16.5697C14.7736 16.3064 14.9215 15.9493 14.9215 15.577C14.9215 15.2047 14.7736 14.8476 14.5104 14.5844C14.2471 14.3211 13.8901 14.1732 13.5178 14.1731ZM18.5234 14.1731C18.2169 14.1472 17.9096 14.2143 17.6419 14.3659C17.3741 14.5175 17.1584 14.7463 17.0229 15.0226C16.8873 15.2988 16.8384 15.6095 16.8824 15.914C16.9264 16.2185 17.0613 16.5026 17.2695 16.7291C17.4777 16.9557 17.7494 17.1141 18.0491 17.1837C18.3488 17.2532 18.6625 17.2306 18.9492 17.1189C19.2359 17.0072 19.4821 16.8115 19.6557 16.5575C19.8294 16.3035 19.9222 16.003 19.9222 15.6953C19.9304 15.5035 19.9007 15.312 19.8348 15.1317C19.769 14.9513 19.6682 14.7857 19.5383 14.6444C19.4084 14.503 19.2519 14.3886 19.0778 14.3078C18.9036 14.2269 18.7153 14.1812 18.5234 14.1731ZM25.1885 2.66687H6.81153C6.44141 2.66774 6.07509 2.74152 5.73349 2.88397C5.39188 3.02643 5.08168 3.23478 4.82061 3.49712C4.55953 3.75947 4.35268 4.07067 4.21188 4.41296C4.07109 4.75525 3.99909 5.12193 4.00001 5.49204V24.0337C3.99911 24.4038 4.07111 24.7705 4.21192 25.1128C4.35272 25.4551 4.55957 25.7663 4.82065 26.0286C5.08172 26.2909 5.39191 26.4993 5.73351 26.6417C6.07511 26.7842 6.44142 26.858 6.81153 26.8588H22.3634L21.6366 24.3217L23.3919 25.9537L25.0514 27.4897L28 30.0954V5.49204C28.0009 5.12193 27.9289 4.75525 27.7881 4.41296C27.6473 4.07067 27.4405 3.75947 27.1794 3.49712C26.9183 3.23478 26.6081 3.02643 26.2665 2.88397C25.9249 2.74152 25.5586 2.66774 25.1885 2.66687ZM19.8949 20.5777V20.5778C19.8949 20.5778 19.401 19.988 18.9896 19.4668C19.9837 19.2328 20.863 18.6547 21.472 17.8348C20.9786 18.1633 20.4495 18.4347 19.8949 18.6439C19.2569 18.9163 18.5896 19.1142 17.9063 19.2337C16.7317 19.4499 15.5272 19.4453 14.3543 19.22C13.6658 19.0852 12.9909 18.8879 12.3382 18.6303C11.9942 18.498 11.6597 18.3422 11.3371 18.164C11.2959 18.1365 11.2549 18.1228 11.2137 18.0954C11.1931 18.0852 11.1745 18.0712 11.1589 18.0543C10.9121 17.9172 10.7747 17.8212 10.7747 17.8212C11.3617 18.6238 12.2106 19.1962 13.1748 19.4394C12.7635 19.9607 12.256 20.5777 12.256 20.5777C11.4414 20.5996 10.6338 20.421 9.90445 20.0575C9.17507 19.694 8.54622 19.1568 8.07325 18.4931C8.11778 15.7129 8.79301 12.979 10.048 10.4977C11.1525 9.63025 12.499 9.1271 13.9017 9.05768L14.0387 9.22232C12.7191 9.54886 11.4876 10.1622 10.432 11.0188C10.432 11.0188 10.7338 10.8543 11.2411 10.6211C12.2269 10.1711 13.2777 9.87954 14.3544 9.7572C14.4312 9.74122 14.5093 9.73202 14.5877 9.7297C15.5067 9.60998 16.4367 9.6008 17.3578 9.70235C18.8065 9.86776 20.2089 10.315 21.4858 11.0188C20.4837 10.2031 19.3199 9.60947 18.0712 9.27714L18.2631 9.05782C19.6658 9.12717 21.0123 9.63033 22.1168 10.4978C23.3719 12.9791 24.0472 15.7129 24.0917 18.4932C23.6149 19.1562 22.9833 19.6927 22.2518 20.056C21.5204 20.4193 20.7113 20.5984 19.8949 20.5777Z" fill="#00B285"/>
</svg>
