<svg xmlns="http://www.w3.org/2000/svg" width="38" height="38" viewBox="0 0 38 38">
  <path d="M16.52,8.63H23a.48.48,0,0,1,.46.6L22.78,12a.36.36,0,0,0,.34.44h5.93a.46.46,0,0,1,.46.55L28.29,19a.52.52,0,0,1-.56.42c-.46,0-1.35-.11-3-.2-3-.16-3.85,1.58-3.85,1.58-.68.76-1.23,4.78,1.13,5.07,1.22.32,2.3.27,2.9-1.17A1.34,1.34,0,0,0,24,22.78s-.79.13-.75.75c0,.38.37.28.4.53a.68.68,0,0,1-.2.47c-.78.65-1.64-.23-1.7-.92A2.9,2.9,0,0,1,22,22,3.85,3.85,0,0,1,23.45,21a3.67,3.67,0,0,1,2.1.2c2,1,1.94,3.11,1.47,4.52A4.12,4.12,0,0,1,25.42,28a7.86,7.86,0,0,1-2.92,1.2,13.07,13.07,0,0,1-3.93,0s-3.13-.93-4.35-3.18a8,8,0,0,1-.93-4.25l.38-2.32H9.06a.58.58,0,0,1-.57-.7l1.28-5.88a.59.59,0,0,1,.59-.47h4.21a.55.55,0,0,0,.52-.39l1-3.06A.5.5,0,0,1,16.52,8.63Z" fill="#00B285"/>
</svg>
