<svg id="Слой_1" data-name="Слой 1" xmlns="http://www.w3.org/2000/svg" width="40" height="40" viewBox="0 0 600 600"><defs><style>.cls-1{fill:#00b285;}.cls-2{fill:#cfcfcf;}.cls-3{fill:#222;}</style></defs><rect class="cls-1" x="116.42" y="363.38" width="32.5" height="194.09"/><polygon class="cls-1" points="221.22 185.18 221.22 557.47 167.18 557.47 167.18 345.12 116.42 345.12 116.42 185.18 221.22 185.18"/><path class="cls-2" d="M123.36,550.54V363.38H109.3V564.59h39.62V550.54ZM109.3,178.06V345.12h14.06V192.3h90.93V550.54H167.18v14.05h61.17V178.06Z"/><polygon class="cls-1" points="323.5 228.27 325.09 226.27 325.09 550.47 266.7 550.47 266.7 299.92 280.07 283.06 286.78 274.59 293.49 266.13 316.8 236.74 323.5 228.27"/><rect class="cls-1" x="325.11" y="226.26" width="29.62" height="324.21"/><polygon class="cls-1" points="354.73 79.03 354.73 207.81 316.03 207.81 306.72 219.68 293.49 236.39 280.07 253.32 257.47 281.85 248.29 293.44 248.29 557.53 218.5 557.53 218.5 79.03 354.73 79.03"/><path class="cls-2" d="M211.36,72V564.59h36.93V550.54H225.6V86H347.76V207.81h14.06V72Zm136.4,154.29V550.54h6.93v6.93h7.13V226.26Z"/><polygon class="cls-2" points="361.82 557.47 361.82 564.59 266.74 564.59 266.74 550.54 354.69 550.54 354.69 557.47 361.82 557.47"/><polygon class="cls-1" points="241.87 64.9 286.62 42.95 331.36 64.9 241.87 64.9"/><path class="cls-2" d="M286.62,35.09,211.44,72H361.8Zm0,15.73,14.31,7H272.31Z"/><path class="cls-3" d="M6.5,363.38V564.59H148.92V363.38ZM38.82,395.7h77.6V532.27H38.82Z"/><path class="cls-1" d="M6.5,363.38V564.59H148.92V363.38ZM134.68,550.54H20.56V377.44H134.68Z"/><polygon class="cls-2" points="257.47 106.42 257.47 281.85 248.29 293.44 248.29 550.47 244.05 550.47 244.05 106.42 257.47 106.42"/><polygon class="cls-2" points="293.49 106.42 293.49 236.39 280.07 253.32 280.07 106.42 293.49 106.42"/><polygon class="cls-2" points="286.78 274.59 293.49 266.13 293.49 550.47 280.07 550.47 280.07 283.06 286.78 274.59"/><polygon class="cls-2" points="323.5 228.27 325.09 226.27 325.09 550.47 316.8 550.47 316.8 236.74 323.5 228.27"/><rect class="cls-2" x="316.8" y="106.42" width="13.42" height="101.39"/><rect class="cls-2" x="325.11" y="226.26" width="5.1" height="324.21"/><polygon class="cls-3" points="323.5 228.27 325.09 226.27 325.09 550.47 266.7 550.47 266.7 299.92 280.07 283.06 286.78 274.59 293.49 266.13 316.8 236.74 323.5 228.27"/><rect class="cls-3" x="325.11" y="226.26" width="29.62" height="324.21"/><polygon class="cls-2" points="361.82 557.47 361.82 564.59 266.74 564.59 266.74 550.52 325.07 550.52 325.07 550.54 354.69 550.54 354.69 557.47 361.82 557.47"/><polygon class="cls-1" points="325.09 226.27 325.09 550.47 266.7 550.47 266.7 299.92 280.07 283.06 286.78 274.59 293.49 266.13 316.8 236.74 323.5 228.27 325.09 226.27"/><rect class="cls-1" x="462.42" y="426.56" width="9.86" height="130.92"/><rect class="cls-1" x="490.54" y="426.56" width="96.59" height="130.92"/><path class="cls-2" d="M455.3,419.44V564.59h17V550.54h-2.92v-117h2.92V419.44Zm35.24,0v14.05H580v117H490.54v14.05H594.07V419.44Z"/><rect class="cls-2" x="512.41" y="451.05" width="13.42" height="113.54"/><rect class="cls-2" x="470.82" y="451.02" width="1.46" height="113.57"/><rect class="cls-2" x="549.84" y="451.05" width="13.42" height="113.54"/><rect class="cls-1" x="14.77" y="370.38" width="128.32" height="187.15"/><rect class="cls-2" x="34.44" y="398.8" width="13.33" height="165.79"/><rect class="cls-2" x="72.6" y="398.8" width="13.33" height="165.79"/><rect class="cls-2" x="110.03" y="398.8" width="13.33" height="165.79"/><polygon class="cls-1" points="465.2 233.34 465.2 557.53 354.73 557.53 354.73 550.47 332.15 550.47 332.15 233.34 465.2 233.34"/><path class="cls-2" d="M325.11,226.26V550.54h14.07V240.32H458.23V550.54H354.69v6.93h7.13v7.12H472.28V226.26Z"/></svg>