<svg width="182" height="36" viewBox="0 0 182 36" fill="none" xmlns="http://www.w3.org/2000/svg">
<path d="M48.8 28H52.52V13.36H56.984V10.12H44.264V13.36H48.8V28ZM61.1885 28.288C62.8205 28.288 64.1325 27.784 65.1245 26.776V28H68.4845V19.36C68.4845 18.416 68.2445 17.592 67.7645 16.888C67.3005 16.168 66.6445 15.608 65.7965 15.208C64.9485 14.808 63.9725 14.608 62.8685 14.608C61.4765 14.608 60.2525 14.928 59.1965 15.568C58.1565 16.208 57.4445 17.072 57.0605 18.16L59.9405 19.528C60.1645 18.952 60.5165 18.488 60.9965 18.136C61.4925 17.784 62.0605 17.608 62.7005 17.608C63.3725 17.608 63.9005 17.776 64.2845 18.112C64.6845 18.448 64.8845 18.864 64.8845 19.36V19.72L61.2605 20.296C59.6925 20.552 58.5245 21.04 57.7565 21.76C56.9885 22.48 56.6045 23.392 56.6045 24.496C56.6045 25.68 57.0125 26.608 57.8285 27.28C58.6605 27.952 59.7805 28.288 61.1885 28.288ZM60.3245 24.376C60.3245 23.944 60.4605 23.616 60.7325 23.392C61.0045 23.152 61.3965 22.984 61.9085 22.888L64.8845 22.36V22.768C64.8845 23.568 64.6125 24.248 64.0685 24.808C63.5245 25.368 62.8045 25.648 61.9085 25.648C61.4605 25.648 61.0845 25.536 60.7805 25.312C60.4765 25.088 60.3245 24.776 60.3245 24.376ZM71.1247 28H74.7247V20.944C74.7247 19.968 74.9967 19.216 75.5407 18.688C76.0847 18.144 76.7967 17.872 77.6767 17.872H78.8047V14.752H78.0367C77.2367 14.752 76.5247 14.904 75.9007 15.208C75.2927 15.496 74.8207 16.048 74.4847 16.864V14.896H71.1247V28ZM80.3825 28H83.9825V23.992L85.4225 22.408L88.7585 28H92.8385L88.1105 20.176L92.8625 14.896H88.4225L83.9825 19.624V9.832H80.3825V28ZM100.715 28.288C102.011 28.288 103.187 27.992 104.243 27.4C105.299 26.808 106.139 26 106.763 24.976C107.403 23.936 107.723 22.76 107.723 21.448C107.723 20.12 107.403 18.944 106.763 17.92C106.139 16.896 105.299 16.088 104.243 15.496C103.187 14.904 102.011 14.608 100.715 14.608C99.4186 14.608 98.2346 14.904 97.1626 15.496C96.1066 16.088 95.2586 16.896 94.6186 17.92C93.9946 18.944 93.6826 20.12 93.6826 21.448C93.6826 22.76 93.9946 23.936 94.6186 24.976C95.2586 26 96.1066 26.808 97.1626 27.4C98.2346 27.992 99.4186 28.288 100.715 28.288ZM100.715 25.048C99.7386 25.048 98.9386 24.712 98.3146 24.04C97.7066 23.368 97.4026 22.504 97.4026 21.448C97.4026 20.408 97.7066 19.552 98.3146 18.88C98.9386 18.192 99.7386 17.848 100.715 17.848C101.691 17.848 102.483 18.192 103.091 18.88C103.699 19.552 104.003 20.408 104.003 21.448C104.003 22.504 103.699 23.368 103.091 24.04C102.483 24.712 101.691 25.048 100.715 25.048ZM113.713 28H116.833L121.993 14.896H118.105L115.273 22.744L112.441 14.896H108.553L113.713 28Z" fill="#00B285"/>
<path d="M128.154 28H131.874V21.088H138.834V28H142.554V10.12H138.834V17.848H131.874V10.12H128.154V28ZM151.78 28.288C153.124 28.288 154.3 28 155.308 27.424C156.316 26.832 157.02 26.056 157.42 25.096L154.54 23.728C154.284 24.176 153.924 24.528 153.46 24.784C153.012 25.04 152.468 25.168 151.828 25.168C150.948 25.168 150.228 24.92 149.668 24.424C149.108 23.928 148.78 23.272 148.684 22.456H157.852C157.916 22.28 157.956 22.072 157.972 21.832C158.004 21.576 158.02 21.32 158.02 21.064C158.02 19.848 157.764 18.76 157.252 17.8C156.756 16.824 156.028 16.048 155.068 15.472C154.108 14.896 152.932 14.608 151.54 14.608C150.292 14.608 149.172 14.904 148.18 15.496C147.188 16.088 146.396 16.896 145.804 17.92C145.228 18.944 144.94 20.112 144.94 21.424C144.94 22.688 145.22 23.84 145.78 24.88C146.34 25.92 147.132 26.752 148.156 27.376C149.18 27.984 150.388 28.288 151.78 28.288ZM151.54 17.488C152.276 17.488 152.884 17.704 153.364 18.136C153.844 18.568 154.124 19.128 154.204 19.816H148.756C148.932 19.064 149.26 18.488 149.74 18.088C150.236 17.688 150.836 17.488 151.54 17.488ZM160.14 28H163.74V9.832H160.14V28ZM166.375 32.8H169.975V26.992C170.439 27.424 170.991 27.752 171.631 27.976C172.287 28.184 172.983 28.288 173.719 28.288C174.999 28.288 176.143 27.984 177.151 27.376C178.159 26.768 178.951 25.944 179.527 24.904C180.119 23.864 180.415 22.712 180.415 21.448C180.415 20.168 180.119 19.016 179.527 17.992C178.935 16.952 178.135 16.128 177.127 15.52C176.119 14.912 174.991 14.608 173.743 14.608C171.999 14.608 170.663 15.16 169.735 16.264V14.896H166.375V32.8ZM173.287 25.048C172.311 25.048 171.511 24.72 170.887 24.064C170.279 23.392 169.975 22.52 169.975 21.448C169.975 20.392 170.279 19.528 170.887 18.856C171.511 18.184 172.311 17.848 173.287 17.848C174.279 17.848 175.095 18.192 175.735 18.88C176.375 19.552 176.695 20.408 176.695 21.448C176.695 22.504 176.375 23.368 175.735 24.04C175.095 24.712 174.279 25.048 173.287 25.048Z" fill="#C9C9C9"/>
<path d="M3.27271 9.81812L17.3914 16.8871V34.3636L10.3366 30.9066V20.3441L3.27271 16.9236V9.81812Z" fill="#00B285"/>
<path d="M32.7273 9.57751L18.6086 16.6374V34.123L25.6634 30.6569V20.0944L32.7273 16.6739V9.57751Z" fill="#00B285"/>
<path d="M26.6505 11.267L31.9967 8.61496L28.7449 6.99476L26.1544 5.70042L17.9882 1.63635L12.5318 4.26125L17.2258 6.58745L13.726 8.20765L9.21569 5.96291L3.75928 8.58781L9.87707 11.6291L14.5711 13.9553L17.878 15.5936L23.2241 12.9415L19.954 11.3123L23.3619 9.63777L26.6505 11.267Z" fill="#C9C9C9"/>
</svg>
