<svg width="22" height="22" viewBox="0 0 22 22" fill="none" xmlns="http://www.w3.org/2000/svg">
<path d="M21.2646 1.42778C20.9799 1.19091 20.6363 1.03567 20.2704 0.978584C19.9044 0.921494 19.5298 0.964688 19.1865 1.10357L1.2656 8.33892C0.882349 8.4966 0.556115 8.76711 0.330199 9.11454C0.104282 9.46196 -0.0106336 9.86988 0.00070393 10.2841C0.0120414 10.6984 0.149096 11.0994 0.393677 11.434C0.638258 11.7685 0.978798 12.0208 1.3701 12.1573L4.9951 13.418L7.0156 20.0997C7.04306 20.1889 7.0829 20.2739 7.13398 20.352C7.14173 20.364 7.15266 20.373 7.1609 20.3846C7.2199 20.467 7.29121 20.5397 7.37233 20.6004C7.3954 20.618 7.41749 20.6345 7.44215 20.6501C7.53708 20.7131 7.64222 20.7591 7.75288 20.7862L7.76472 20.7872L7.77143 20.7901C7.83796 20.8036 7.90568 20.8105 7.97358 20.8106C7.98011 20.8106 7.98591 20.8074 7.99238 20.8073C8.09484 20.8055 8.19641 20.7879 8.29347 20.755C8.31605 20.7473 8.3354 20.7345 8.35731 20.7252C8.42969 20.6952 8.49826 20.6567 8.5616 20.6106C8.61232 20.5679 8.66306 20.5251 8.71382 20.4824L11.416 17.4991L15.4462 20.6211C15.8011 20.8974 16.2378 21.0475 16.6875 21.0479C17.1586 21.0473 17.6153 20.8847 17.9808 20.5874C18.3464 20.2901 18.5987 19.8762 18.6953 19.4151L21.958 3.39849C22.0319 3.03801 22.0065 2.66421 21.8843 2.31708C21.7622 1.96995 21.548 1.66255 21.2646 1.42778ZM8.3701 13.7364C8.23144 13.8745 8.13666 14.0505 8.09764 14.2422L7.78813 15.7462L7.00407 13.1532L11.0693 11.0362L8.3701 13.7364ZM16.6719 19.0401L11.9092 15.3506C11.7099 15.1966 11.4599 15.1234 11.2091 15.1455C10.9583 15.1675 10.7249 15.2833 10.5556 15.4697L9.69023 16.4249L9.99607 14.9385L17.0791 7.85549C17.2481 7.68665 17.3511 7.46285 17.3694 7.22461C17.3877 6.98638 17.3201 6.74947 17.1788 6.55681C17.0375 6.36414 16.8318 6.22845 16.5991 6.17433C16.3664 6.1202 16.122 6.15121 15.9101 6.26174L5.74485 11.5544L2.02049 10.1915L19.999 2.99905L16.6719 19.0401Z" fill="#00B285"/>
</svg>
