<svg width="40" height="40" viewBox="0 0 40 40" fill="none" xmlns="http://www.w3.org/2000/svg">
<g clip-path="url(#clip0_7095_16473)">
<path d="M11.4001 37.1004L11.8001 32.7004L9.6001 33.7004L8.8001 32.1004L5.9001 33.4004L1.6001 31.9004L4.9001 26.4004L2.5001 26.8004L5.3001 23.4004L5.9001 22.7004L3.9001 21.5004L5.8001 19.9004L7.5001 18.1004L8.5001 16.6004L8.7001 15.7004L5.9001 16.8004L9.1001 12.4004L7.3001 11.8004L9.1001 10.2004L10.7001 8.50039L11.9001 6.60039L13.1001 3.90039L14.1001 5.60039L15.3001 7.50039L16.7001 9.50039L19.5001 12.1004L16.7001 11.9004L20.4001 16.5004L18.4001 15.8004L20.4001 19.0004L19.2001 19.6004L24.0001 26.2004H21.4001L25.0001 32.0004L20.2001 31.5004L19.4001 33.6004L15.2001 32.0004L15.9001 37.1004H11.4001Z" fill="#00B285"/>
<path d="M13.1 4.7L13.7 5.8L14.9 7.7L16.4 9.7L18.4 11.6L15.8 11.4L19.3 15.7L17.5 15.1L19.8 18.8L18.6 19.4L23.2 25.8H20.7L24.2 31.5L19.9 31L19.1 33.1L14.7 31.4L15.4 36.7H11.8L12.2 32.1L9.7 33.2L8.9 31.6L5.9 32.9L2.1 31.6L5.6 25.8L3.4 26.2L5.6 23.6L6.4 22.5L4.5 21.4L6 20.1L7.7 18.3L8.8 16.7L9.3 15.1L6.9 16L10.1 11.5L9.1 12L8 11.6L9.3 10.5L10.9 8.7L12.2 6.8L13.1 4.7ZM13.1 3L12.5 4.4L11.6 6.4L10.3 8.3L8.8 10L7.5 11.1L6.5 11.9L7.7 12.3L8.4 12.6L6.3 15.6L4.9 17.6L7.2 16.7L8.2 16.3L7.2 17.8L5.6 19.5L4 20.9L3.2 21.6L4.1 22.1L5.3 22.8L5 23.2L2.8 25.8L1.4 27.4L3.6 27L4.2 26.9L1.6 31.3L1 32.1L1.9 32.4L5.7 33.7L6 33.8L6.3 33.7L8.7 32.7L9.2 33.7L9.5 34.3L10 33.9L11.3 33.3L11 36.6V37.5H11.8H15.4H16.3L16.2 36.6L15.7 32.6L18.9 33.8L19.6 34.1L19.9 33.4L20.5 31.8L24.2 32.2L25.7 32.4L24.9 31.1L22.1 26.5H23.3H24.8L23.9 25.3L19.8 19.6L20.2 19.4L20.9 19L20.5 18.3L19.3 16.4L21.6 17.2L20 15.2L17.6 12.3L18.5 12.4L20.6 12.6L19 11.1L17 9.2L15.6 7.3L14.4 5.4L13.8 4.3L13.1 3Z" fill="#CFCFCF"/>
<path d="M26.7004 37.1008L27.2004 32.8008L23.8004 34.2008L23.0004 32.3008L18.9004 32.8008L21.9004 27.9008H19.8004L23.8004 22.2008L22.8004 21.7008L24.5004 19.1008L22.7004 19.7008L25.9004 15.7008L23.5004 15.9008L26.0004 13.6008L27.2004 11.9008L28.2004 10.4008L29.1004 8.80078L30.2004 11.3008L31.2004 12.8008L32.6004 14.3008L34.1004 15.6008L32.6004 16.2008L35.3004 20.0008L32.9004 19.1008L33.0004 19.6008L33.9004 20.9008L35.3004 22.4008L37.0004 23.8008L35.3004 24.8008L35.7004 25.4008L38.2004 28.4008L36.2004 28.0008L38.9004 32.6008L35.1004 33.9008L32.8004 32.9008L32.1004 34.3008L30.2004 33.5008L30.6004 37.1008H26.7004Z" fill="#00B285"/>
<path d="M29.1002 9.60039L29.9002 11.4004L31.0002 13.0004L32.4002 14.5004L33.5002 15.4004L32.6002 15.7004L31.8002 15.3004L34.5002 19.1004L32.5002 18.3004L32.9002 19.7004L33.8002 21.1004L35.2002 22.6004L36.5002 23.7004L34.9002 24.6004L35.6002 25.5004L37.5002 27.7004L35.6002 27.4004L38.6002 32.3004L35.4002 33.4004L32.9002 32.3004L32.2002 33.7004L30.1002 32.8004L30.4002 36.7004H27.3002L27.9002 32.2004L24.0002 33.7004L23.3002 31.9004L19.7002 32.3004L22.7002 27.5004H20.6002L24.5002 22.1004L23.5002 21.6004L25.5002 18.5004L24.0002 19.0004L27.0002 15.4004L24.8002 15.6004L26.5002 14.0004L27.8002 12.3004L28.8002 10.7004L29.1002 9.60039ZM29.1002 7.90039L28.4002 9.30039L27.9002 10.2004L26.9002 11.7004L25.7002 13.3004L24.0002 14.9004L22.5002 16.4004L24.6002 16.2004H25.1002L23.2002 18.5004L21.6002 20.5004L23.6002 19.8004L22.7002 21.2004L22.3002 21.9004L23.0002 22.3004L23.2002 22.4004L19.8002 27.1004L19.0002 28.3004H20.5002H21.3002L19.0002 32.0004L18.2002 33.3004L19.7002 33.1004L22.8002 32.7004L23.3002 33.9004L23.6002 34.6004L24.3002 34.3004L26.8002 33.3004L26.4002 36.5004L26.3002 37.4004H27.2002H30.3002H31.0002L30.9002 36.6004L30.7002 34.0004L31.7002 34.4004L32.4002 34.7004L32.7002 34.1004L33.1002 33.4004L35.0002 34.2004L35.3002 34.3004L35.6002 34.2004L38.8002 33.1004L39.7002 32.8004L39.0002 32.0004L36.9002 28.5004H37.1002L39.2002 28.9004L37.8002 27.3004L36.0002 25.2004L35.8002 25.0004L36.7002 24.5004L37.6002 24.0004L36.8002 23.3004L35.6002 22.2004L34.2002 20.7004L33.5002 19.7004L34.0002 19.9004L36.3002 20.8004L34.9002 18.8004L33.2002 16.4004L33.6002 16.2004L34.8002 15.8004L33.8002 15.0004L32.8002 14.0004L31.5002 12.5004L30.5002 11.0004L29.8002 9.30039L29.1002 7.90039Z" fill="#CFCFCF"/>
<path d="M20.1002 37.1012L20.5002 34.2012L18.2002 35.1012L17.7002 33.8012L14.7002 34.2012L16.8002 30.8012H15.3002L18.2002 26.8012L17.5002 26.4012L18.5002 24.8012L17.2002 25.2012L19.5002 22.4012L17.8002 22.5012L19.7002 20.7012L20.6002 19.6012L21.3002 18.5012L22.0002 17.2012L22.8002 19.1012L23.5002 20.2012L24.4002 21.2012L25.6002 22.2012L24.6002 22.6012L26.6002 25.4012L24.7002 24.8012L24.8002 24.9012L25.4002 25.8012L26.3002 26.8012L27.6002 27.9012L26.4002 28.6012L26.6002 28.9012L28.6002 31.2012L27.1002 30.9012L28.9002 34.0012L26.1002 34.9012L24.6002 34.3012L24.1002 35.2012L22.9002 34.7012L23.1002 37.1012H20.1002Z" fill="#00B285"/>
<path d="M21.9 18.1008L22.4 19.3008L23.2 20.4008L24.1 21.5008L24.9 22.1008L24.3 22.3008L23.7 22.0008L25.6 24.6008L24.2 24.1008L24.5 25.0008L25.1 25.9008L26.1 27.0008L27 27.8008L25.9 28.4008L26.4 29.0008L27.7 30.5008L26.4 30.3008L28.4 33.7008L26.2 34.5008L24.4 33.7008L23.9 34.6008L22.4 34.0008L22.6 36.7008H20.5L20.9 33.6008L18.3 34.6008L18 33.4008L15.5 33.7008L17.5 30.4008H16L18.7 26.7008L18 26.3008L19.3 24.1008L18.2 24.5008L20.2 22.0008L18.7 22.1008L20 21.0008L20.9 19.8008L21.6 18.7008L21.9 18.1008ZM22 16.3008L21.3 17.7008L20.9 18.3008L20.2 19.3008L19.4 20.4008L18.3 21.5008L16.8 23.0008L18.7 22.9008L17.7 24.0008L16.1 26.0008L17.6 25.5008L17.4 25.9008L17 26.6008L17.6 26.9008L15.4 29.9008L14.5 31.1008H16H16.1L14.8 33.3008L14 34.6008L15.5 34.4008L17.4 34.2008L17.7 34.9008L18 35.6008L18.7 35.3008L20.1 34.8008L19.9 36.6008L19.8 37.5008H20.7H22.8H23.6L23.5 36.7008L23.4 35.3008L23.7 35.4008L24.4 35.7008L24.7 35.1008L24.8 34.8008L25.9 35.3008L26.2 35.4008L26.5 35.3008L28.7 34.5008L29.6 34.2008L29 33.4008L27.8 31.4008L29.5 31.7008L28.1 30.1008L26.9 28.7008L27.3 28.5008L28.2 28.0008L27.4 27.3008L26.6 26.6008L25.7 25.6008L27.6 26.3008L26.2 24.3008L25.2 22.9008L26.4 22.5008L25.4 21.7008L24.7 21.1008L23.8 20.1008L23.1 19.1008L22.6 17.9008L22 16.3008Z" fill="#CFCFCF"/>
</g>
<defs>
<clipPath id="clip0_7095_16473">
<rect width="38.5" height="34.5" fill="white" transform="translate(1 3)"/>
</clipPath>
</defs>
</svg>
