<svg width="22" height="16" viewBox="0 0 22 16" fill="none" xmlns="http://www.w3.org/2000/svg">
<path d="M20.7113 2.98277C20.52 1.92715 19.6088 1.1584 18.5513 0.918398C16.9688 0.582773 14.04 0.342773 10.8713 0.342773C7.70441 0.342773 4.72879 0.582773 3.14441 0.918398C2.08879 1.1584 1.17566 1.8784 0.984412 2.98277C0.791287 4.18277 0.600037 5.86277 0.600037 8.02277C0.600037 10.1828 0.791287 11.8628 1.03129 13.0628C1.22441 14.1184 2.13566 14.8871 3.19129 15.1271C4.87129 15.4628 7.75129 15.7028 10.92 15.7028C14.0888 15.7028 16.9688 15.4628 18.6488 15.1271C19.7044 14.8871 20.6157 14.1671 20.8088 13.0628C21 11.8628 21.24 10.134 21.2888 8.02277C21.1913 5.86277 20.9513 4.18277 20.7113 2.98277ZM8.28004 11.3828V4.66277L14.1357 8.02277L8.28004 11.3828Z" fill="#00B285"/>
</svg>
